<svg xmlns="http://www.w3.org/2000/svg" viewBox="0 0 640 480" role="img" aria-label="Wellensittich Paar">
    <rect width="640" height="480" rx="32" fill="#f7f0e6"/>
    <circle cx="85" cy="80" r="38" fill="#ffffff" opacity=".55"/>
    <circle cx="555" cy="395" r="55" fill="#ffffff" opacity=".45"/>
    <g stroke-linejoin="round">
            <path d="M155 355h330" stroke="#9a6b3b" stroke-width="18" stroke-linecap="round"/>
            <ellipse cx="250" cy="245" rx="86" ry="112" fill="#72c9d4"/><ellipse cx="390" cy="245" rx="86" ry="112" fill="#8fd36b"/>
            <circle cx="225" cy="210" r="10"/><circle cx="365" cy="210" r="10"/>
            <path d="m270 225 38 16-38 16M410 225l38 16-38 16" fill="#f6b73c"/>
            <path d="M205 250q45 30 75 75M345 250q45 30 75 75" fill="none" stroke="#4b9daa" stroke-width="18" stroke-linecap="round"/>
            <path d="M230 355v38M270 355v38M370 355v38M410 355v38" stroke="#6f563d" stroke-width="7"/>
        </g>
</svg>
